# xmcd
#
# Track frame offsets:
#	150
#	5025
#	28847
#	43058
#
# Disc length: 734 seconds
#
# Revision: 1
# Processed by: cddbd v1.5.1PL0 Copyright (c) Steve Scherf et al.
# Submitted via: EasyCDDAExtractor 7.1.0.1
#
DISCID=2e02dc04
DTITLE=Hotel Saint George - Welcome To My Life
DYEAR=2002
DGENRE=Dance
TTITLE0=Imperial Suite
TTITLE1=Welcome To My Life (Room 516 Extended)
TTITLE2=Welcome To My Life (Room 306 Radio Edit)
TTITLE3=Reception
EXTD=
EXTT0=
EXTT1=
EXTT2=
EXTT3=
PLAYORDER=
